<svg width="96" height="96" viewBox="0 0 96 96" fill="none" xmlns="http://www.w3.org/2000/svg">
<path d="M34.6257 77.1875C33.9582 77.3118 33.6666 77.6251 33.7503 78.1247C33.8334 78.6244 34.2084 78.7915 34.875 78.6244C35.5425 78.4581 35.8338 78.1658 35.75 77.7494C35.6673 77.2915 35.2923 77.1037 34.6257 77.1875Z" fill="white"/>
<path d="M31.0629 77.6879C30.3961 77.6879 30.0629 77.9158 30.0629 78.3751C30.0629 78.9167 30.4174 79.1452 31.1253 79.062C31.7921 79.062 32.1257 78.8328 32.1257 78.3751C32.1257 77.8342 31.7713 77.6041 31.0629 77.6879Z" fill="white"/>
<path d="M26.188 77.499C26.0216 77.9576 26.2926 78.2694 27.0004 78.4368C27.6254 78.6857 28.0214 78.5612 28.1877 78.0616C28.313 77.6039 28.0419 77.2714 27.3754 77.0616C26.7502 76.8955 26.3546 77.0393 26.188 77.499Z" fill="white"/>
<path d="M90.7186 5.28077C87.1976 1.76048 82.9591 0 77.9997 0H17.9999C13.042 0 8.80194 1.76048 5.28077 5.28077C1.76048 8.80172 0 13.0418 0 17.9999V78.0005C0 82.9589 1.76048 87.1985 5.28077 90.7188C8.80172 94.2397 13.042 96.0002 17.9999 96.0002H31.9999C32.9158 96.0002 33.6038 95.9687 34.062 95.9074C34.5199 95.8443 34.9779 95.5733 35.4365 95.0937C35.8954 94.6149 36.1239 93.9168 36.1239 93.0005C36.1239 92.8761 36.113 91.458 36.0924 88.7499C36.0711 86.0409 36.0609 83.8954 36.0609 82.3118L34.6233 82.562C33.7067 82.7283 32.5504 82.8017 31.1544 82.7807C29.7591 82.7596 28.3108 82.6143 26.811 82.3433C25.3104 82.0721 23.9151 81.4473 22.6233 80.469C21.3321 79.4889 20.4156 78.2081 19.8738 76.6251L19.2486 75.1867C18.832 74.2294 18.1761 73.1663 17.2801 72.0007C16.3841 70.8334 15.478 70.0416 14.5615 69.625L14.1239 69.3124C13.8325 69.1042 13.5617 68.8532 13.3115 68.5618C13.0617 68.2695 12.8743 67.9775 12.7493 67.6868C12.6243 67.3946 12.7281 67.1549 13.0617 66.9668C13.3953 66.7796 13.9989 66.6868 14.8743 66.6868L16.1238 66.874C16.9574 67.0404 17.9881 67.5399 19.2179 68.3737C20.4469 69.2069 21.4571 70.2901 22.2489 71.623C23.2078 73.3318 24.363 74.633 25.7178 75.529C27.0715 76.4259 28.4364 76.8738 29.8112 76.8738C31.1859 76.8738 32.3733 76.7696 33.3737 76.5621C34.3731 76.3532 35.3106 76.04 36.1861 75.6234C36.5611 72.8321 37.5821 70.685 39.2482 69.1852C36.8735 68.935 34.7382 68.5605 32.8418 68.06C30.9465 67.5596 28.9879 66.7477 26.9673 65.6223C24.9459 64.4971 23.2691 63.1022 21.9357 61.4345C20.6025 59.7669 19.5084 57.5795 18.6549 54.872C17.8009 52.163 17.3738 49.0376 17.3738 45.4963C17.3738 40.455 19.0202 36.1626 22.3118 32.6213C20.7698 28.8298 20.9153 24.5803 22.7489 19.8716C23.9573 19.4964 25.7493 19.7779 28.1241 20.7155C30.4992 21.6537 32.2382 22.456 33.3429 23.1217C34.4475 23.7877 35.3325 24.3507 35.9993 24.8095C39.8751 23.7261 43.8749 23.1846 47.9996 23.1846C52.124 23.1846 56.1244 23.7261 60.0004 24.8095L62.3754 23.3096C64.001 22.3091 65.9174 21.3926 68.1259 20.5596C70.3343 19.7264 72.0215 19.497 73.1887 19.8722C75.063 24.581 75.2307 28.8305 73.6876 32.6218C76.9791 36.1635 78.626 40.4557 78.626 45.497C78.626 49.0389 78.1989 52.1748 77.3449 54.9033C76.4916 57.6325 75.3881 59.8207 74.0328 61.4665C72.6791 63.1125 70.9913 64.4968 68.9707 65.6227C66.9497 66.7472 64.9914 67.5607 63.0952 68.0596C61.1992 68.56 59.0642 68.9361 56.6892 69.1863C58.8544 71.0607 59.9376 74.0181 59.9376 78.0605V92.9985C59.9376 93.7071 60.0409 94.2796 60.2493 94.7172C60.4591 95.1546 60.7918 95.4558 61.25 95.6237C61.7101 95.7901 62.1145 95.894 62.4695 95.9354C62.8246 95.9772 63.334 95.9982 64.0008 95.9982H78.0008C82.9586 95.9982 87.1989 94.2378 90.7184 90.7168C94.2393 87.1959 95.9998 82.9556 95.9998 77.9977V17.9999C95.9993 13.0418 94.2389 8.80106 90.7186 5.28077Z" fill="white"/>
<path d="M18.9999 69.875C18.7085 70.0826 18.7501 70.416 19.1251 70.8743C19.5423 71.2907 19.8753 71.3535 20.1255 71.0615C20.4169 70.854 20.3753 70.5206 19.9996 70.0613C19.5833 69.687 19.2501 69.6242 18.9999 69.875Z" fill="white"/>
<path d="M16.938 68.3125C16.8132 68.6047 16.959 68.8549 17.3756 69.0624C17.7085 69.2715 17.9802 69.2304 18.1879 68.9381C18.3127 68.6459 18.1669 68.3957 17.7503 68.1866C17.3337 68.0614 17.063 68.1034 16.938 68.3125Z" fill="white"/>
<path d="M20.9379 72.3128C20.5625 72.5203 20.5625 72.8964 20.9379 73.4374C21.3129 73.9798 21.6664 74.1252 22.0003 73.8747C22.3755 73.5827 22.3755 73.1869 22.0003 72.6867C21.6673 72.1464 21.3129 72.0199 20.9379 72.3128Z" fill="white"/>
<path d="M23.1259 75.1243C22.7507 75.4583 22.8334 75.8526 23.3759 76.3125C23.8752 76.8114 24.292 76.8742 24.6254 76.4984C24.959 76.1659 24.8756 75.7703 24.3754 75.3119C23.8761 74.8128 23.4593 74.7497 23.1259 75.1243Z" fill="white"/>
</svg>
