<svg width="38" height="54" viewBox="0 0 38 54" fill="none" xmlns="http://www.w3.org/2000/svg">
<path d="M26.3805 0C23.5914 0 20.9677 1.15752 19.0055 3.15286C17.0542 1.15752 14.4195 0 11.6304 0C5.76565 0 0.992264 5.07103 0.992264 11.2996C0.992264 15.3454 3.83645 20.6589 9.43664 27.0859C12.0052 30.0293 14.5407 32.5208 16.0841 33.9539C15.2242 36.1697 15.5219 38.8265 16.9881 40.8218C16.9881 40.8218 18.6747 42.5746 17.3298 44.4928C15.588 46.9732 15.4998 50.4568 17.3298 52.9813C17.3298 52.9813 18.785 54.8223 20.6591 53.5545C22.3347 52.3419 21.0008 50.3465 21.0008 50.3465C20.3173 49.4315 20.3173 48.0536 21.0008 47.1386C22.8308 44.7243 22.8308 41.1746 21.0008 38.6501C21.0008 38.6501 19.3913 36.7981 20.4496 35.2988C20.4606 35.2878 20.4716 35.2768 20.4937 35.2657C20.6591 35.1114 24.5836 31.4955 28.5743 26.8434C34.2516 20.229 37.0076 15.147 37.0076 11.2996C37.0186 5.07103 32.2453 0 26.3805 0ZM25.2671 23.9441C22.8749 26.7332 20.4606 29.1805 18.9834 30.6246C17.5062 29.2356 15.136 26.8985 12.7659 24.1866C8.01454 18.7408 5.40186 14.1658 5.40186 11.2996C5.40186 7.49631 8.20195 4.40959 11.6304 4.40959C13.8573 4.40959 15.9298 5.7435 17.0432 7.89317C17.418 8.62076 18.1787 9.08376 18.9944 9.08376C19.8212 9.08376 20.5709 8.62076 20.9457 7.89317C22.0701 5.7435 24.1426 4.40959 26.3805 4.40959C29.82 4.40959 32.6201 7.50733 32.6201 11.2996C32.6091 12.8209 31.661 16.4809 25.2671 23.9441Z" fill="white"/>
</svg>
