<svg width="17" height="14" viewBox="0 0 17 14" fill="none" xmlns="http://www.w3.org/2000/svg">
<path d="M14.7935 6.33822C14.8033 6.1872 14.8126 6.03816 14.8126 5.88516C14.8126 2.6346 12.636 0 9.95184 0C7.99154 0 6.30576 1.4093 5.53776 3.43323C5.13306 3.08634 4.63904 2.87927 4.10416 2.87927C2.73266 2.87927 1.62151 4.22526 1.62151 5.88582C1.62151 6.13444 1.64929 6.37515 1.69613 6.60662C0.685752 7.27467 0 8.5712 0 10.0636C0 12.2379 1.45538 14 3.25065 14C5.04591 14 12.4301 14 13.7493 14C15.5446 14 17 12.2379 17 10.0636C17.0011 8.33181 16.0768 6.86514 14.7935 6.33822ZM14.604 9.69363C14.4928 11.1168 13.6753 12.6402 11.7155 12.6402C10.2334 12.6402 8.82381 10.7343 8.20887 9.67714C8.20723 9.67384 7.06014 7.52923 5.79049 7.58463C4.54862 7.6387 4.22127 8.42941 4.16517 9.13835C4.10961 9.84662 4.44404 10.576 4.97837 10.9104C5.64942 11.3271 6.4855 11.0713 7.33248 10.1823L8.16311 11.3463C7.34501 12.2036 6.47243 12.6441 5.64506 12.6448C5.2115 12.6448 4.79046 12.5234 4.39611 12.2775C3.39717 11.6536 2.79584 10.3346 2.90096 8.99458C3.01208 7.57012 3.83019 6.04673 5.78995 6.04673C7.53891 6.04673 8.76771 7.97371 9.16805 8.64638C9.83092 9.76287 10.9873 11.1029 11.715 11.1029C12.9579 11.1029 13.2842 10.2568 13.3403 9.54854C13.3959 8.84093 13.0614 8.11089 12.5271 7.77719C11.8566 7.3604 11.0205 7.61694 10.1735 8.50525L9.34289 7.34194C10.5908 6.03552 11.9633 5.69589 13.1099 6.41142C14.1088 7.03462 14.7096 8.35357 14.604 9.69363Z" fill="white"/>
</svg>
