<svg width="45" height="45" viewBox="0 0 45 45" fill="none" xmlns="http://www.w3.org/2000/svg">
<rect x="3" y="5" width="41" height="36" fill="#0C3559"/>
<g clip-path="url(#clip0)">
<path d="M23.2927 45C15.2958 45 8.78981 38.494 8.78981 30.4971V30.2865H8.47258C6.00636 30.2865 4 28.2801 4 25.8139V23.766C4 21.2998 6.00636 19.2934 8.47258 19.2934H8.78981V12.7019C8.78981 10.1749 9.95939 7.77288 11.9351 6.20697C11.8641 5.86458 11.8272 5.51153 11.8272 5.15316C11.8272 4.23237 12.3175 3.28644 13.139 2.62298C13.1473 2.61637 13.1556 2.60997 13.1641 2.60379L13.6617 2.24861C13.6794 2.23603 13.6977 2.22452 13.7167 2.21407C13.7943 2.17186 13.8819 2.11899 13.9826 2.05866C14.4512 1.77745 15.1596 1.35256 16.3305 0.995248C17.9533 0.46397 19.6556 0.154627 21.5362 0.0490961C28.7628 -0.355332 35.1934 1.77148 37.1791 5.2233C37.1799 5.22479 37.1808 5.22628 37.1816 5.22777C37.4291 5.62623 37.6033 5.94432 37.773 6.3093C39.3971 9.80269 38.0762 13.4694 37.7956 14.1678V19.2934H38.1418C40.6081 19.2934 42.6144 21.2998 42.6144 23.766V25.8139C42.6144 28.2801 40.6081 30.2865 38.1418 30.2865H37.7956V30.4971C37.7958 38.494 31.2896 45 23.2927 45ZM9.85557 29.7535V30.4971C9.85557 37.9062 15.8834 43.9341 23.2925 43.9341C30.7018 43.9341 36.7297 37.9062 36.7297 30.4971V25.9794H35.7854C35.643 25.9794 35.5066 25.9224 35.4064 25.8212C35.3062 25.7199 35.2509 25.5828 35.2524 25.4404C35.2531 25.3786 35.317 19.2403 34.842 17.3397C34.4127 15.6224 33.187 14.9368 33.1352 14.9082C33.0082 14.839 32.9133 14.7202 32.8751 14.5808C32.8367 14.4411 32.8555 14.2913 32.9293 14.167C32.9363 14.1552 33.6607 12.9142 33.6927 11.7242C33.6976 11.5387 32.9331 11.087 31.9219 10.7992C30.7677 10.5523 29.88 10.5642 29.858 10.5657C29.854 10.5657 29.8491 10.5657 29.845 10.5657H18.7589C17.1555 10.5657 15.7702 10.2903 14.6415 9.74662C14.4527 9.6558 14.271 9.55304 14.097 9.43983C13.5992 10.0155 12.891 10.997 12.8929 11.737C12.8959 12.9151 13.644 14.1469 13.6517 14.1591C13.7287 14.2844 13.7506 14.4367 13.712 14.5786C13.6734 14.7206 13.5777 14.8407 13.4477 14.9095C13.3984 14.9364 12.1728 15.6222 11.7434 17.3395C11.2682 19.2405 11.3321 25.3784 11.333 25.4402C11.3345 25.5826 11.2793 25.7197 11.1791 25.821C11.0789 25.9222 10.9424 25.9792 10.8 25.9792H9.85578V29.7535H9.85557ZM37.8248 29.2205H38.1421C40.0205 29.2205 41.5487 27.6924 41.5487 25.8139V23.766C41.5487 21.8875 40.0205 20.3594 38.1421 20.3594H37.8248V29.2205ZM8.47258 20.3592C6.59414 20.3592 5.06597 21.8873 5.06597 23.7658V25.8137C5.06597 27.6922 6.59414 29.2203 8.47258 29.2203H8.78981V20.3592H8.47258ZM36.3218 24.9134H36.7297V14.197C36.2664 13.1865 35.5492 12.4572 34.7495 11.9308C34.6851 12.8618 34.325 13.7532 34.0788 14.2661C34.6171 14.6867 35.4993 15.5747 35.876 17.0811C36.3024 18.786 36.3267 23.336 36.3218 24.9134ZM9.85557 24.9134H10.2634C10.2585 23.3362 10.283 18.786 10.7092 17.0811C11.0846 15.5796 11.9619 14.6925 12.5009 14.2704C12.2297 13.721 11.8293 12.7416 11.8268 11.7398C11.824 10.6083 12.7262 9.39357 13.2718 8.76295C12.8616 8.34423 12.5256 7.85197 12.2809 7.30769C10.7512 8.67021 9.85557 10.6384 9.85557 12.7019V24.9134ZM29.9401 9.48205C30.6632 9.48205 34.9636 9.61828 37.1339 12.7465C37.2096 12.4591 37.2852 12.125 37.3475 11.756C36.7222 11.1469 34.4632 9.15266 31.1016 8.51351C28.7515 8.06666 25.9762 8.23977 23.2917 8.40712C21.2962 8.53163 19.2325 8.66061 17.4041 8.5214C15.6316 8.38687 14.403 7.92424 13.5626 7.40704C13.948 7.99502 14.4842 8.47663 15.1283 8.78256C16.107 9.24775 17.3278 9.48354 18.757 9.48354H29.8431C29.8565 9.4829 29.8898 9.48205 29.9401 9.48205ZM27.5323 7.16314C28.8381 7.16314 30.1109 7.24011 31.3005 7.4663C34.2545 8.02785 36.3917 9.51402 37.4863 10.4403C37.5053 9.9709 37.4916 9.47501 37.4285 8.96612C35.9425 7.47888 33.3073 6.4417 29.7911 5.96244C27.9286 5.70874 25.8056 5.99761 23.5575 6.30333C21.2923 6.6114 18.9498 6.93055 16.8419 6.65297C14.504 6.34533 13.4325 5.50343 12.9443 4.74852C12.9106 4.88453 12.8929 5.02034 12.8929 5.15337C12.8929 5.20347 12.8938 5.25357 12.8957 5.30324C13.0686 5.63817 14.0529 7.19789 17.4849 7.45863C19.2399 7.59187 21.1757 7.47121 23.2253 7.34329C24.6569 7.25375 26.1143 7.16314 27.5323 7.16314ZM28.2495 4.80096C28.8276 4.80096 29.3918 4.83209 29.935 4.90606C32.9137 5.31199 35.3224 6.11658 37.016 7.25993C36.9535 7.09236 36.8838 6.92522 36.8064 6.75871C36.6557 6.43466 36.4992 6.14898 36.2655 5.77227C36.2615 5.76566 36.2572 5.75863 36.2532 5.75138C34.4864 2.6863 28.3234 0.735365 21.5961 1.11357C19.8055 1.21398 18.1893 1.50755 16.6549 2.0109C16.6498 2.01261 16.6443 2.01431 16.639 2.0158C15.5947 2.33474 14.9547 2.7187 14.5309 2.97283C14.4284 3.03444 14.3371 3.08881 14.2557 3.13422L13.7969 3.46168C13.7346 3.51263 13.6747 3.56593 13.6178 3.62158C13.6847 4.04157 14.1292 5.22074 16.9809 5.59596C18.9472 5.85456 21.2177 5.54565 23.4136 5.24696C25.0324 5.02673 26.6917 4.80096 28.2495 4.80096ZM25.7479 34.677C25.6114 34.677 25.475 34.625 25.3709 34.521C24.2813 33.4315 22.5082 33.4315 21.4185 34.521C21.2105 34.7292 20.8728 34.7292 20.6649 34.521C20.4566 34.3129 20.4566 33.9754 20.6649 33.7673C22.1703 32.262 24.6194 32.262 26.1246 33.7673C26.3329 33.9754 26.3329 34.3129 26.1246 34.521C26.0207 34.625 25.8843 34.677 25.7479 34.677ZM31.1807 31.6226C30.8862 31.6226 30.6477 31.384 30.6477 31.0896V25.23C30.1456 25.4101 29.5476 25.5361 28.8569 25.5361C26.4883 25.5361 25.1946 24.0551 25.1409 23.992C24.9497 23.7683 24.9759 23.4319 25.1995 23.2407C25.4229 23.0495 25.7596 23.0757 25.9508 23.2993C25.9909 23.3449 26.9959 24.4702 28.8566 24.4702C29.7169 24.4702 30.3912 24.2297 30.8715 23.9664C30.9016 23.9451 30.9338 23.9265 30.9681 23.9118C31.4631 23.6223 31.7262 23.3238 31.7471 23.2995C31.9386 23.0778 32.2743 23.0512 32.4976 23.2413C32.7206 23.4317 32.7489 23.7654 32.5598 23.9892C32.5351 24.0184 32.2488 24.351 31.7136 24.7002V31.0894C31.7136 31.384 31.4751 31.6226 31.1807 31.6226ZM17.7024 25.5361C15.2992 25.5361 14.225 24.0124 14.1804 23.9474C14.0137 23.7048 14.0753 23.3729 14.3179 23.2064C14.561 23.0394 14.8925 23.1013 15.059 23.3439C15.0895 23.3865 15.8819 24.4702 17.7022 24.4702C19.5934 24.4702 20.8408 23.2771 20.8531 23.2652C21.0638 23.0603 21.4006 23.0637 21.6061 23.2733C21.8117 23.4829 21.8097 23.8187 21.6008 24.0248C21.5386 24.0864 20.0443 25.5361 17.7024 25.5361ZM28.8328 20.9947C28.7812 20.9947 28.7289 20.9872 28.6771 20.9715L25.3905 19.9688C25.1089 19.8829 24.9505 19.5851 25.0362 19.3034C25.1221 19.022 25.4202 18.8636 25.7016 18.9491L28.9882 19.9518C29.2698 20.0377 29.4282 20.3355 29.3425 20.6171C29.2722 20.847 29.0609 20.9947 28.8328 20.9947ZM17.9228 20.9947C17.6945 20.9947 17.4832 20.847 17.4133 20.6171C17.3274 20.3355 17.486 20.0377 17.7676 19.9518L21.0544 18.9491C21.3356 18.863 21.6339 19.0218 21.7198 19.3034C21.8057 19.5851 21.6471 19.8829 21.3655 19.9688L18.0786 20.9715C18.0266 20.9872 17.9744 20.9947 17.9228 20.9947Z" fill="white"/>
</g>
<defs>
<clipPath id="clip0">
<rect width="45" height="45" fill="white"/>
</clipPath>
</defs>
</svg>
