<svg width="14" height="13" viewBox="0 0 14 13" fill="none" xmlns="http://www.w3.org/2000/svg">
<path fill-rule="evenodd" clip-rule="evenodd" d="M10.724 12.2877C10.9118 12.4207 11.1539 12.454 11.3697 12.3723C11.5856 12.2901 11.7442 12.1057 11.7921 11.8823C12.299 9.5 13.5287 3.47008 13.9901 1.30299C14.0251 1.13966 13.9667 0.969912 13.8384 0.860828C13.7101 0.751745 13.5322 0.720245 13.3735 0.779162C10.9276 1.68449 3.39499 4.51074 0.316155 5.64999C0.120738 5.72233 -0.00642873 5.91016 -1.20593e-05 6.11608C0.00698794 6.32258 0.145821 6.50166 0.345905 6.56175C1.72665 6.97475 3.53907 7.54933 3.53907 7.54933C3.53907 7.54933 4.38607 10.1072 4.82765 11.4081C4.88307 11.5714 5.01082 11.6997 5.1794 11.7441C5.3474 11.7878 5.52707 11.7417 5.65249 11.6233C6.36182 10.9537 7.45849 9.91824 7.45849 9.91824C7.45849 9.91824 9.54216 11.446 10.724 12.2877ZM4.30149 7.22616L5.28091 10.4567L5.49849 8.41091C5.49849 8.41091 9.28257 4.99783 11.4397 3.05241C11.5027 2.99525 11.5115 2.89958 11.459 2.8325C11.4071 2.76541 11.3114 2.74966 11.2397 2.79516C8.73949 4.39175 4.30149 7.22616 4.30149 7.22616Z" fill="white"/>
</svg>
