<svg width="14" height="10" viewBox="0 0 14 10" fill="none" xmlns="http://www.w3.org/2000/svg">
<path d="M7.67751 9.66266C8.03275 9.66266 8.17799 9.392 8.17391 9.05266C8.15583 7.77466 8.59039 7.08666 9.37494 7.98333C10.2429 8.97533 10.4226 9.66266 11.4766 9.66266H13.3432C13.8145 9.66266 14 9.48933 14 9.21733C14 8.642 13.1711 7.62666 12.4688 6.88133C11.4854 5.83799 11.4393 5.81333 12.2862 4.55733C13.3368 2.998 14.7111 0.999995 13.4954 0.999995H11.1733C10.723 0.999995 10.6903 1.29 10.5299 1.722C9.9495 3.28666 8.84647 5.31333 8.42765 5.00333C7.98958 4.68 8.19024 3.39933 8.22349 1.49599C8.23224 0.993328 8.22991 0.648662 7.55794 0.469995C7.19103 0.373328 6.83405 0.333328 6.50273 0.333328C5.17687 0.333328 4.26224 0.968662 4.78197 1.07933C5.69835 1.27466 5.61027 3.54066 5.39678 4.51933C5.02462 6.22333 3.62585 3.16999 3.04312 1.64933C2.90255 1.28399 2.85938 0.999995 2.35774 0.999995H0.459064C0.172076 0.999995 0 1.10666 0 1.34399C0 1.74533 1.72659 5.82399 3.37503 7.85733C4.98263 9.84066 6.57156 9.66266 7.67751 9.66266Z" fill="white"/>
</svg>
